HIERARCHY
ROOT Hips
{
	OFFSET 0.000000 0.000000 0.000000
	CHANNELS 6 Xposition Yposition Zposition Zrotation Yrotation Xrotation 
	JOINT LHipJoint
	{
		OFFSET 0.000000 0.000000 0.000000
		CHANNELS 3 Zrotation Yrotation Xrotation
		JOINT LeftUpLeg
		{
			OFFSET 1.363060 -1.794630 0.839290
			CHANNELS 3 Zrotation Yrotation Xrotation
			JOINT LeftLeg
			{
				OFFSET 2.448110 -6.726130 0.000000
				CHANNELS 3 Zrotation Yrotation Xrotation
				JOINT LeftFoot
				{
					OFFSET 2.562200 -7.039590 0.000000
					CHANNELS 3 Zrotation Yrotation Xrotation
					JOINT LeftToeBase
					{
						OFFSET 0.157640 -0.433110 2.322550
						CHANNELS 3 Zrotation Yrotation Xrotation
						End Site
						{
							OFFSET 0.000000 0.000000 0.000000
						}
					}
				}
			}
		}
	}
	JOINT RHipJoint
	{
		OFFSET 0.000000 0.000000 0.000000
		CHANNELS 3 Zrotation Yrotation Xrotation
		JOINT RightUpLeg
		{
			OFFSET -1.305520 -1.794630 0.839290
			CHANNELS 3 Zrotation Yrotation Xrotation
			JOINT RightLeg
			{
				OFFSET -2.542530 -6.985550 0.000000
				CHANNELS 3 Zrotation Yrotation Xrotation
				JOINT RightFoot
				{
					OFFSET -2.568260 -7.056230 0.000000
					CHANNELS 3 Zrotation Yrotation Xrotation
					JOINT RightToeBase
					{
						OFFSET -0.164730 -0.452590 2.363150
						CHANNELS 3 Zrotation Yrotation Xrotation
						End Site
						{
							OFFSET 0.000000 0.000000 0.000000
						}
					}
				}
			}
		}
	}
	JOINT LowerBack
	{
		OFFSET 0.000000 0.000000 0.000000
		CHANNELS 3 Zrotation Yrotation Xrotation
		JOINT Spine
		{
			OFFSET 0.028270 2.035590 -0.193380
			CHANNELS 3 Zrotation Yrotation Xrotation
			JOINT Spine1
			{
				OFFSET 0.056720 2.048850 -0.042750
				CHANNELS 3 Zrotation Yrotation Xrotation
				JOINT Neck
				{
					OFFSET 0.000000 0.000000 0.000000
					CHANNELS 3 Zrotation Yrotation Xrotation
					JOINT Neck1
					{
						OFFSET -0.054170 1.746240 0.172020
						CHANNELS 3 Zrotation Yrotation Xrotation
						JOINT Head
						{
							OFFSET 0.104070 1.761360 -0.123970
							CHANNELS 3 Zrotation Yrotation Xrotation
							End Site
							{
								OFFSET 0.000000 0.000000 0.000000
							}
						}
					}
				}
				JOINT LeftShoulder
				{
					OFFSET 0.000000 0.000000 0.000000
					CHANNELS 3 Zrotation Yrotation Xrotation
					JOINT LeftArm
					{
						OFFSET 3.362410 1.200890 -0.311210
						CHANNELS 3 Zrotation Yrotation Xrotation
						JOINT LeftForeArm
						{
							OFFSET 4.983000 -0.000000 -0.000000
							CHANNELS 3 Zrotation Yrotation Xrotation
							JOINT LeftHand
							{
								OFFSET 3.483560 -0.000000 -0.000000
								CHANNELS 3 Zrotation Yrotation Xrotation
								JOINT LeftFingerBase
								{
									OFFSET 0.000000 0.000000 0.000000
									CHANNELS 3 Zrotation Yrotation Xrotation
									JOINT LeftHandIndex1
									{
										OFFSET 0.715260 -0.000000 -0.000000
										CHANNELS 3 Zrotation Yrotation Xrotation
										End Site
										{
											OFFSET 0.000000 0.000000 0.000000
										}
									}
								}
								JOINT LThumb
								{
									OFFSET 0.000000 0.000000 0.000000
									CHANNELS 3 Zrotation Yrotation Xrotation
									End Site
									{
										OFFSET 0.000000 0.000000 0.000000
									}
								}
							}
						}
					}
				}
				JOINT RightShoulder
				{
					OFFSET 0.000000 0.000000 0.000000
					CHANNELS 3 Zrotation Yrotation Xrotation
					JOINT RightArm
					{
						OFFSET -3.136600 1.374050 -0.404650
						CHANNELS 3 Zrotation Yrotation Xrotation
						JOINT RightForeArm
						{
							OFFSET -5.241900 -0.000000 -0.000000
							CHANNELS 3 Zrotation Yrotation Xrotation
							JOINT RightHand
							{
								OFFSET -3.444170 -0.000000 -0.000000
								CHANNELS 3 Zrotation Yrotation Xrotation
								JOINT RightFingerBase
								{
									OFFSET 0.000000 0.000000 0.000000
									CHANNELS 3 Zrotation Yrotation Xrotation
									JOINT RightHandIndex1
									{
										OFFSET -0.622530 -0.000000 -0.000000
										CHANNELS 3 Zrotation Yrotation Xrotation
										End Site
										{
											OFFSET 0.000000 0.000000 0.000000
										}
									}
								}
								JOINT RThumb
								{
									OFFSET 0.000000 0.000000 0.000000
									CHANNELS 3 Zrotation Yrotation Xrotation
									End Site
									{
										OFFSET 0.000000 0.000000 0.000000
									}
								}
							}
						}
					}
				}
			}
		}
	}
}
MOTION
Frames: 10
Frame Time: 0.008333
0.302597 17.757641 -0.030260 -1.902749 1.222840 5.059867 1.130575 5.464325 2.867494 -17.122769 -23.408367 1.607654 -0.932625 3.494692 13.918333 -1.911061 10.765675 -8.751573 1.368600 -7.404100 -20.918100 -4.103496 -5.742548 1.377460 23.653234 13.201868 7.345262 0.644050 1.251727 2.273517 1.260613 -9.241708 -6.267803 -2.222200 9.314200 -26.783300 1.006033 0.578264 -4.716476 -0.031142 0.179778 2.697696 0.499608 0.420720 -2.096286 -15.704687 -13.733753 -12.880598 12.733061 -17.587659 13.538598 6.198300 -8.337600 12.802200 -4.982546 -9.419924 0.455134 -88.971353 -2.188011 28.950948 11.283654 -10.584668 -1.158285 1.489087 2.521144 22.620621 11.432487 26.046457 4.385100 -7.125000 0.000000 0.000000 -18.499000 52.537900 -3.529700 3.281244 10.207679 2.200341 90.799282 -1.339707 11.108574 -19.460510 18.458844 -1.788388 -0.925003 1.365200 42.459661 -12.985063 12.033500 -2.340500 7.125000 0.000000 0.000000 11.021100 -18.160300 7.171100 
0.301068 17.758354 -0.027305 -1.892489 1.186827 5.053656 1.121815 5.461612 2.872432 -17.117551 -23.375051 1.596009 -0.932723 3.499910 13.935489 -1.888001 10.689708 -8.886726 1.311000 -7.252700 -20.466200 -4.104361 -5.741806 1.380719 23.648984 13.231560 7.372684 0.646671 1.252193 2.276326 1.244704 -9.188197 -6.470340 -2.056200 8.982100 -25.739400 1.021907 0.606412 -4.710539 -0.103787 0.213883 2.735467 0.489072 0.437597 -2.096906 -15.623637 -13.711069 -12.941213 12.740175 -17.564914 13.541624 6.192200 -8.317600 12.803000 -4.973734 -9.419650 0.461307 -88.904622 -2.145790 28.992075 11.326344 -10.638391 -1.160840 1.476894 2.512811 22.585108 11.317590 25.906842 4.318500 -7.125000 0.000000 0.000000 -18.540500 52.398500 -3.473500 3.280857 10.208043 2.192719 90.839983 -1.326758 11.151684 -19.418750 18.412467 -1.785904 -0.948002 1.371146 42.371180 -13.160019 12.029798 -2.374500 7.125000 0.000000 0.000000 10.913600 -18.144700 7.102300 
0.301068 17.757335 -0.025675 -1.847231 1.175967 5.038843 1.123244 5.463796 2.875983 -17.175762 -23.355409 1.634169 -0.939502 3.482277 13.891986 -1.903157 10.760033 -8.896712 1.319800 -7.276000 -20.535700 -4.099561 -5.742414 1.384980 23.589964 13.232169 7.399194 0.645335 1.251028 2.276827 1.234929 -9.129637 -6.492586 -2.053800 8.977300 -25.724400 0.935425 0.595747 -4.720295 -0.058956 0.204036 2.789816 0.534929 0.435800 -2.086641 -15.633331 -13.693341 -13.003028 12.693014 -17.529163 13.556249 6.177600 -8.303600 12.808800 -4.975672 -9.424504 0.456379 -88.943640 -2.175220 28.959912 11.321341 -10.631499 -1.160456 1.470676 2.517261 22.654016 11.226802 25.974677 4.297800 -7.125000 0.000000 0.000000 -18.650200 52.446900 -3.517900 3.273337 10.204781 2.189661 90.813621 -1.308336 11.115576 -19.405703 18.399579 -1.785399 -0.953690 1.380033 42.500949 -13.254584 12.046594 -2.395900 7.125000 0.000000 0.000000 10.855000 -18.121300 7.068500 
0.301068 17.758761 -0.024248 -1.850511 1.164747 5.032308 1.124809 5.466879 2.880877 -17.176145 -23.339052 1.645270 -0.943749 3.474968 13.869870 -1.933955 10.891192 -8.865456 1.406400 -7.501300 -21.209100 -4.100826 -5.744004 1.388540 23.602240 13.234732 7.425123 0.645208 1.251985 2.276553 1.240016 -9.151081 -6.452151 -2.049100 8.967700 -25.694400 0.944189 0.605904 -4.743948 -0.058650 0.216537 2.861460 0.531943 0.441926 -2.066841 -15.673174 -13.688779 -13.045503 12.753729 -17.507601 13.519034 6.210400 -8.290600 12.809200 -4.974348 -9.424592 0.451743 -88.948521 -2.256844 28.980416 11.310735 -10.620878 -1.160786 1.444481 2.536435 22.832298 10.877175 26.197042 4.209500 -7.125000 0.000000 0.000000 -19.056000 52.595700 -3.669900 3.273939 10.206560 2.189424 90.819649 -1.286622 11.108723 -19.441091 18.446368 -1.791551 -0.946134 1.377839 42.616582 -13.222762 12.031980 -2.387400 7.125000 0.000000 0.000000 10.873200 -18.138100 7.076700 
0.302801 17.761308 -0.022313 -1.900961 1.166479 5.034828 1.122707 5.470755 2.887800 -17.116632 -23.335197 1.658997 -0.950745 3.456540 13.812950 -1.934108 10.883577 -8.840809 1.381300 -7.436800 -21.016200 -4.104428 -5.745911 1.390749 23.658699 13.232674 7.434997 0.645735 1.253937 2.276990 1.242896 -9.164247 -6.438886 -1.986100 8.837100 -25.286900 1.049494 0.611918 -4.762264 -0.097112 0.218663 2.915833 0.478570 0.439870 -2.050214 -15.656843 -13.688033 -13.075372 12.828606 -17.505889 13.481428 6.238400 -8.281200 12.806700 -4.968815 -9.420408 0.455359 -88.878125 -2.294605 28.983733 11.357524 -10.685143 -1.166211 1.410724 2.546228 22.933331 10.473363 26.270072 4.074200 -7.125000 0.000000 0.000000 -19.445900 52.604900 -3.754200 3.278995 10.207217 2.188917 90.838691 -1.254912 11.163999 -19.494730 18.511963 -1.795824 -0.922251 1.358552 42.577450 -12.986888 11.973361 -2.331400 7.125000 0.000000 0.000000 11.017700 -18.214100 7.155500 
0.303616 17.761716 -0.021905 -1.905116 1.153673 5.047512 1.124502 5.470152 2.886072 -17.114461 -23.323609 1.650919 -0.953435 3.449161 13.792380 -1.931306 10.871920 -8.847384 1.394100 -7.469800 -21.114900 -4.101596 -5.744658 1.390315 23.656117 13.252112 7.419893 0.646128 1.253257 2.276704 1.242821 -9.169848 -6.457527 -1.977900 8.819900 -25.233500 1.046309 0.609573 -4.716771 -0.058323 0.218407 2.890043 0.482571 0.440617 -2.073738 -15.702744 -13.691812 -13.110594 12.810662 -17.506147 13.523288 6.236900 -8.284100 12.832400 -4.971959 -9.418268 0.462069 -88.835254 -2.262497 28.960412 11.430789 -10.777816 -1.172322 1.387976 2.540030 22.906828 10.241047 26.164730 3.972100 -7.125000 0.000000 0.000000 -19.606500 52.482500 -3.727100 3.279089 10.199718 2.192892 90.798670 -1.257069 11.235444 -19.539457 18.559001 -1.795579 -0.894633 1.333563 42.366868 -12.665663 11.916997 -2.259400 7.125000 0.000000 0.000000 11.216200 -18.295400 7.268900 
0.301374 17.761716 -0.021498 -1.856512 1.118142 5.092232 1.129146 5.466203 2.879284 -17.162485 -23.299450 1.600764 -0.950494 3.454375 13.811658 -1.940809 10.911131 -8.818858 1.436000 -7.576400 -21.434600 -4.103475 -5.742895 1.386117 23.611726 13.298857 7.377433 0.642117 1.250685 2.271286 1.264804 -9.246039 -6.172227 -2.214500 9.299300 -26.736200 0.930751 0.618040 -4.696902 -0.008538 0.236284 2.845882 0.547735 0.452723 -2.086150 -15.785831 -13.712143 -13.092253 12.809927 -17.519029 13.503545 6.246600 -8.297800 12.830300 -4.977787 -9.416502 0.464117 -88.833760 -2.249577 28.968537 11.461320 -10.808468 -1.170383 1.385671 2.518880 22.864141 10.241954 25.914212 3.932000 -7.125000 0.000000 0.000000 -19.496400 52.264800 -3.598500 3.276119 10.196035 2.201733 90.733188 -1.281707 11.361697 -19.570231 18.586755 -1.798499 -0.885198 1.324078 42.179081 -12.533317 11.919372 -2.234300 7.125000 0.000000 0.000000 11.298200 -18.305000 7.321700 
0.300763 17.760901 -0.019766 -1.854335 1.087954 5.115799 1.131954 5.464051 2.876973 -17.165293 -23.274373 1.567504 -0.945325 3.463065 13.835943 -1.946070 10.920273 -8.742235 1.467700 -7.656100 -21.674400 -4.108166 -5.742447 1.383718 23.607619 13.337815 7.352254 0.638994 1.249815 2.268061 1.275994 -9.272888 -5.974405 -2.276100 9.419000 -27.115000 0.926583 0.635141 -4.705407 -0.010907 0.258803 2.829635 0.551181 0.464120 -2.081069 -15.804152 -13.722982 -13.058209 12.806418 -17.534889 13.508388 6.246300 -8.308100 12.830900 -4.979510 -9.416496 0.463654 -88.829761 -2.248469 28.988232 11.457538 -10.803621 -1.170915 1.392693 2.519109 22.900187 10.295490 25.933966 3.954400 -7.125000 0.000000 0.000000 -19.457900 52.288900 -3.602600 3.279394 10.196856 2.205960 90.733973 -1.321338 11.448640 -19.600157 18.617763 -1.805080 -0.886331 1.320520 42.184923 -12.539799 11.898786 -2.232700 7.125000 0.000000 0.000000 11.293200 -18.321700 7.314100 
0.301068 17.757743 -0.017422 -1.850703 1.080471 5.107919 1.128277 5.461329 2.875404 -17.181758 -23.266087 1.575758 -0.939104 3.478342 13.880677 -1.926982 10.843962 -8.777961 1.414500 -7.522000 -21.271300 -4.105254 -5.740461 1.384266 23.593500 13.345908 7.358072 0.642916 1.249595 2.271783 1.256316 -9.214147 -6.261682 -2.094100 9.059400 -25.981300 0.954553 0.643608 -4.682214 -0.044059 0.268710 2.792130 0.535837 0.468033 -2.097866 -15.783917 -13.696902 -12.940619 12.794790 -17.506365 13.496922 6.248400 -8.302000 12.793900 -4.976196 -9.414333 0.460454 -88.813009 -2.238837 29.008255 11.412141 -10.743150 -1.163889 1.395070 2.519392 22.926682 10.313520 25.928573 3.960300 -7.125000 0.000000 0.000000 -19.437800 52.285400 -3.597000 3.284972 10.199693 2.210884 90.743424 -1.411317 11.640228 -19.618552 18.626548 -1.809524 -0.895555 1.308536 42.180877 -12.582841 11.798183 -2.225500 7.125000 0.000000 0.000000 11.265800 -18.404800 7.274500 
0.302189 17.757437 -0.016913 -1.848267 1.081037 5.118411 1.119047 5.456826 2.874013 -17.182142 -23.276744 1.545074 -0.932443 3.500132 13.942618 -1.905565 10.769152 -8.878000 1.371200 -7.410800 -20.938400 -4.106054 -5.739449 1.386218 23.585905 13.349826 7.350288 0.647095 1.249874 2.275105 1.240996 -9.181500 -6.526144 -1.988500 8.842100 -25.302500 1.036589 0.673305 -4.652965 -0.135307 0.302279 2.787735 0.490776 0.483329 -2.114710 -15.692380 -13.701041 -12.941483 12.739440 -17.529166 13.509831 6.207200 -8.308700 12.785800 -4.966191 -9.416788 0.463200 -88.746956 -2.271023 29.086712 11.380370 -10.701288 -1.158134 1.395892 2.516035 22.983106 10.299832 25.873671 3.946600 -7.125000 0.000000 0.000000 -19.423600 52.233800 -3.569100 3.292326 10.197125 2.210097 90.777739 -1.436215 11.756505 -19.621529 18.626520 -1.813142 -0.908617 1.305514 42.137514 -12.672629 11.755987 -2.236500 7.125000 0.000000 0.000000 11.209700 -18.431900 7.230000 
